<mxfile host="app.diagrams.net" agent="Mozilla/5.0 (Windows NT 10.0; Win64; x64) AppleWebKit/537.36 (KHTML, like Gecko) Chrome/131.0.0.0 Safari/537.36 Edg/131.0.0.0" version="25.0.1">
  <diagram name="หน้า-1" id="79Dz5K5z7YCA5iU9ygR0">
    <mxGraphModel dx="3604" dy="1325" grid="1" gridSize="10" guides="1" tooltips="1" connect="1" arrows="1" fold="1" page="1" pageScale="1" pageWidth="827" pageHeight="1169" math="0" shadow="0">
      <root>
        <mxCell id="0" />
        <mxCell id="1" parent="0" />
        <mxCell id="8YtkrATVPZm9ApoZF7PL-10" value="" style="edgeStyle=orthogonalEdgeStyle;rounded=0;orthogonalLoop=1;jettySize=auto;html=1;" edge="1" parent="1" source="8YtkrATVPZm9ApoZF7PL-1" target="8YtkrATVPZm9ApoZF7PL-9">
          <mxGeometry relative="1" as="geometry" />
        </mxCell>
        <mxCell id="8YtkrATVPZm9ApoZF7PL-1" value="Start" style="ellipse;whiteSpace=wrap;html=1;" vertex="1" parent="1">
          <mxGeometry x="-473" y="50" width="120" height="80" as="geometry" />
        </mxCell>
        <mxCell id="8YtkrATVPZm9ApoZF7PL-6" value="" style="edgeStyle=orthogonalEdgeStyle;rounded=0;orthogonalLoop=1;jettySize=auto;html=1;" edge="1" parent="1" source="8YtkrATVPZm9ApoZF7PL-2" target="8YtkrATVPZm9ApoZF7PL-3">
          <mxGeometry relative="1" as="geometry" />
        </mxCell>
        <mxCell id="8YtkrATVPZm9ApoZF7PL-2" value="แสดงข้อมูลUserลำดับ 1" style="shape=parallelogram;perimeter=parallelogramPerimeter;whiteSpace=wrap;html=1;fixedSize=1;" vertex="1" parent="1">
          <mxGeometry x="-508" y="280" width="190" height="60" as="geometry" />
        </mxCell>
        <mxCell id="8YtkrATVPZm9ApoZF7PL-7" value="" style="edgeStyle=orthogonalEdgeStyle;rounded=0;orthogonalLoop=1;jettySize=auto;html=1;" edge="1" parent="1" source="8YtkrATVPZm9ApoZF7PL-3" target="8YtkrATVPZm9ApoZF7PL-4">
          <mxGeometry relative="1" as="geometry" />
        </mxCell>
        <mxCell id="8YtkrATVPZm9ApoZF7PL-3" value="แสดงรับข้อมูลUserลำดับ 2" style="shape=parallelogram;perimeter=parallelogramPerimeter;whiteSpace=wrap;html=1;fixedSize=1;" vertex="1" parent="1">
          <mxGeometry x="-508" y="395" width="190" height="60" as="geometry" />
        </mxCell>
        <mxCell id="8YtkrATVPZm9ApoZF7PL-13" value="" style="edgeStyle=orthogonalEdgeStyle;rounded=0;orthogonalLoop=1;jettySize=auto;html=1;" edge="1" parent="1" source="8YtkrATVPZm9ApoZF7PL-4" target="8YtkrATVPZm9ApoZF7PL-12">
          <mxGeometry relative="1" as="geometry" />
        </mxCell>
        <mxCell id="8YtkrATVPZm9ApoZF7PL-4" value="แสดงรับข้อมูลUserลำดับ 3" style="shape=parallelogram;perimeter=parallelogramPerimeter;whiteSpace=wrap;html=1;fixedSize=1;" vertex="1" parent="1">
          <mxGeometry x="-508" y="515" width="190" height="60" as="geometry" />
        </mxCell>
        <mxCell id="8YtkrATVPZm9ApoZF7PL-11" value="" style="edgeStyle=orthogonalEdgeStyle;rounded=0;orthogonalLoop=1;jettySize=auto;html=1;" edge="1" parent="1" source="8YtkrATVPZm9ApoZF7PL-9" target="8YtkrATVPZm9ApoZF7PL-2">
          <mxGeometry relative="1" as="geometry" />
        </mxCell>
        <mxCell id="8YtkrATVPZm9ApoZF7PL-9" value="รับข้อมูลUser 3 เลข" style="shape=parallelogram;perimeter=parallelogramPerimeter;whiteSpace=wrap;html=1;fixedSize=1;" vertex="1" parent="1">
          <mxGeometry x="-508" y="170" width="190" height="60" as="geometry" />
        </mxCell>
        <mxCell id="8YtkrATVPZm9ApoZF7PL-17" value="" style="edgeStyle=orthogonalEdgeStyle;rounded=0;orthogonalLoop=1;jettySize=auto;html=1;" edge="1" parent="1" source="8YtkrATVPZm9ApoZF7PL-12" target="8YtkrATVPZm9ApoZF7PL-14">
          <mxGeometry relative="1" as="geometry" />
        </mxCell>
        <mxCell id="8YtkrATVPZm9ApoZF7PL-12" value="ให้ ข้อมูลลำดับ 1&amp;nbsp;&lt;div&gt;มากที่สุด&lt;/div&gt;" style="rounded=0;whiteSpace=wrap;html=1;" vertex="1" parent="1">
          <mxGeometry x="-473" y="620" width="120" height="60" as="geometry" />
        </mxCell>
        <mxCell id="8YtkrATVPZm9ApoZF7PL-21" style="edgeStyle=orthogonalEdgeStyle;rounded=0;orthogonalLoop=1;jettySize=auto;html=1;entryX=0.5;entryY=0;entryDx=0;entryDy=0;" edge="1" parent="1" source="8YtkrATVPZm9ApoZF7PL-14" target="8YtkrATVPZm9ApoZF7PL-18">
          <mxGeometry relative="1" as="geometry" />
        </mxCell>
        <mxCell id="8YtkrATVPZm9ApoZF7PL-24" value="" style="edgeStyle=orthogonalEdgeStyle;rounded=0;orthogonalLoop=1;jettySize=auto;html=1;" edge="1" parent="1" source="8YtkrATVPZm9ApoZF7PL-14" target="8YtkrATVPZm9ApoZF7PL-23">
          <mxGeometry relative="1" as="geometry" />
        </mxCell>
        <mxCell id="8YtkrATVPZm9ApoZF7PL-30" style="edgeStyle=orthogonalEdgeStyle;rounded=0;orthogonalLoop=1;jettySize=auto;html=1;entryX=1;entryY=0.5;entryDx=0;entryDy=0;" edge="1" parent="1" source="8YtkrATVPZm9ApoZF7PL-14" target="8YtkrATVPZm9ApoZF7PL-27">
          <mxGeometry relative="1" as="geometry">
            <Array as="points">
              <mxPoint x="-290" y="785" />
              <mxPoint x="-290" y="1073" />
            </Array>
          </mxGeometry>
        </mxCell>
        <mxCell id="8YtkrATVPZm9ApoZF7PL-14" value="&lt;font style=&quot;font-size: 10px;&quot;&gt;&lt;span style=&quot;font-size: 12px;&quot;&gt;ข้อมูลลำดับ 1 มากกว่า&lt;/span&gt;&lt;/font&gt;&lt;div&gt;&lt;font style=&quot;font-size: 10px;&quot;&gt;&lt;span style=&quot;font-size: 12px;&quot;&gt;ข้อมูลลำดับ 2 ไหม&lt;/span&gt;&lt;/font&gt;&lt;/div&gt;" style="rhombus;whiteSpace=wrap;html=1;" vertex="1" parent="1">
          <mxGeometry x="-487" y="745" width="147" height="80" as="geometry" />
        </mxCell>
        <mxCell id="8YtkrATVPZm9ApoZF7PL-15" value="Y" style="text;html=1;align=center;verticalAlign=middle;whiteSpace=wrap;rounded=0;" vertex="1" parent="1">
          <mxGeometry x="-518" y="745" width="60" height="30" as="geometry" />
        </mxCell>
        <mxCell id="8YtkrATVPZm9ApoZF7PL-16" value="N" style="text;html=1;align=center;verticalAlign=middle;whiteSpace=wrap;rounded=0;" vertex="1" parent="1">
          <mxGeometry x="-368" y="745" width="60" height="30" as="geometry" />
        </mxCell>
        <mxCell id="8YtkrATVPZm9ApoZF7PL-26" value="" style="edgeStyle=orthogonalEdgeStyle;rounded=0;orthogonalLoop=1;jettySize=auto;html=1;" edge="1" parent="1" source="8YtkrATVPZm9ApoZF7PL-18" target="8YtkrATVPZm9ApoZF7PL-23">
          <mxGeometry relative="1" as="geometry" />
        </mxCell>
        <mxCell id="8YtkrATVPZm9ApoZF7PL-29" style="edgeStyle=orthogonalEdgeStyle;rounded=0;orthogonalLoop=1;jettySize=auto;html=1;entryX=0;entryY=0.5;entryDx=0;entryDy=0;" edge="1" parent="1" source="8YtkrATVPZm9ApoZF7PL-18" target="8YtkrATVPZm9ApoZF7PL-27">
          <mxGeometry relative="1" as="geometry">
            <Array as="points">
              <mxPoint x="-592" y="1073" />
              <mxPoint x="-472" y="1073" />
            </Array>
          </mxGeometry>
        </mxCell>
        <mxCell id="8YtkrATVPZm9ApoZF7PL-18" value="&lt;font style=&quot;font-size: 10px;&quot;&gt;&lt;span style=&quot;font-size: 12px;&quot;&gt;ข้อมูลลำดับ 1 มากกว่า&lt;/span&gt;&lt;/font&gt;&lt;div&gt;&lt;font style=&quot;font-size: 10px;&quot;&gt;&lt;span style=&quot;font-size: 12px;&quot;&gt;ข้อมูลลำดับ 3 ไหม&lt;/span&gt;&lt;/font&gt;&lt;/div&gt;" style="rhombus;whiteSpace=wrap;html=1;" vertex="1" parent="1">
          <mxGeometry x="-666" y="850" width="147" height="80" as="geometry" />
        </mxCell>
        <mxCell id="8YtkrATVPZm9ApoZF7PL-19" value="Y" style="text;html=1;align=center;verticalAlign=middle;whiteSpace=wrap;rounded=0;" vertex="1" parent="1">
          <mxGeometry x="-540" y="850" width="60" height="30" as="geometry" />
        </mxCell>
        <mxCell id="8YtkrATVPZm9ApoZF7PL-20" value="N" style="text;html=1;align=center;verticalAlign=middle;whiteSpace=wrap;rounded=0;" vertex="1" parent="1">
          <mxGeometry x="-650" y="930" width="60" height="30" as="geometry" />
        </mxCell>
        <mxCell id="8YtkrATVPZm9ApoZF7PL-31" value="" style="edgeStyle=orthogonalEdgeStyle;rounded=0;orthogonalLoop=1;jettySize=auto;html=1;" edge="1" parent="1" source="8YtkrATVPZm9ApoZF7PL-22" target="8YtkrATVPZm9ApoZF7PL-27">
          <mxGeometry relative="1" as="geometry" />
        </mxCell>
        <mxCell id="8YtkrATVPZm9ApoZF7PL-22" value="ให้เป็น&lt;span style=&quot;background-color: initial;&quot;&gt;ข้อมูลลำดับ&lt;/span&gt;&lt;span style=&quot;background-color: initial;&quot;&gt;ที่&lt;/span&gt;&lt;span style=&quot;background-color: initial;&quot;&gt;มากที่สุด&lt;/span&gt;" style="rounded=0;whiteSpace=wrap;html=1;" vertex="1" parent="1">
          <mxGeometry x="-473" y="940" width="120" height="60" as="geometry" />
        </mxCell>
        <mxCell id="8YtkrATVPZm9ApoZF7PL-25" value="" style="edgeStyle=orthogonalEdgeStyle;rounded=0;orthogonalLoop=1;jettySize=auto;html=1;" edge="1" parent="1" source="8YtkrATVPZm9ApoZF7PL-23" target="8YtkrATVPZm9ApoZF7PL-22">
          <mxGeometry relative="1" as="geometry" />
        </mxCell>
        <mxCell id="8YtkrATVPZm9ApoZF7PL-23" value="" style="ellipse;whiteSpace=wrap;html=1;aspect=fixed;" vertex="1" parent="1">
          <mxGeometry x="-426" y="877.5" width="25" height="25" as="geometry" />
        </mxCell>
        <mxCell id="8YtkrATVPZm9ApoZF7PL-32" value="" style="edgeStyle=orthogonalEdgeStyle;rounded=0;orthogonalLoop=1;jettySize=auto;html=1;" edge="1" parent="1" source="8YtkrATVPZm9ApoZF7PL-27" target="8YtkrATVPZm9ApoZF7PL-28">
          <mxGeometry relative="1" as="geometry" />
        </mxCell>
        <mxCell id="8YtkrATVPZm9ApoZF7PL-27" value="" style="ellipse;whiteSpace=wrap;html=1;aspect=fixed;" vertex="1" parent="1">
          <mxGeometry x="-425.5" y="1060" width="25" height="25" as="geometry" />
        </mxCell>
        <mxCell id="8YtkrATVPZm9ApoZF7PL-34" value="" style="edgeStyle=orthogonalEdgeStyle;rounded=0;orthogonalLoop=1;jettySize=auto;html=1;" edge="1" parent="1" source="8YtkrATVPZm9ApoZF7PL-28" target="8YtkrATVPZm9ApoZF7PL-33">
          <mxGeometry relative="1" as="geometry" />
        </mxCell>
        <mxCell id="8YtkrATVPZm9ApoZF7PL-28" value="แสดงข้อมูล" style="shape=parallelogram;perimeter=parallelogramPerimeter;whiteSpace=wrap;html=1;fixedSize=1;" vertex="1" parent="1">
          <mxGeometry x="-508.5" y="1130" width="190" height="60" as="geometry" />
        </mxCell>
        <mxCell id="8YtkrATVPZm9ApoZF7PL-33" value="END" style="ellipse;whiteSpace=wrap;html=1;" vertex="1" parent="1">
          <mxGeometry x="-473.5" y="1240" width="120" height="80" as="geometry" />
        </mxCell>
      </root>
    </mxGraphModel>
  </diagram>
</mxfile>
